<svg xmlns="http://www.w3.org/2000/svg" width="186" height="44" fill="none"><g opacity=".5"><path fill="#66C61C" d="m34.106 10.233-1.218-1.189C31.67 7.776 30.37 6.51 28.746 5.716c-1.867-.95-3.897-.713-5.927-.713H7.47l3.085 4.041H28.99c1.705 0 3.167.317 4.548 1.189.243.08.487.08.568 0z"/><path fill="#4CA30D" d="m37.516 16.73-1.218-1.189c-1.218-1.268-2.518-2.535-4.142-3.328-1.867-.95-3.897-.713-5.928-.713H12.586l3.086 4.041h16.81c1.705 0 3.166.317 4.547 1.189a.53.53 0 0 0 .487 0z"/><path fill="#3B7C0F" d="m41.334 23.07-1.218-1.189c-1.218-1.268-2.517-2.535-4.142-3.328-1.867-.95-3.897-.713-5.927-.713H17.54l3.086 4.041h15.591c1.705 0 3.167.317 4.548 1.189.243.079.406.158.568 0z"/><path fill="#66C61C" d="m7.146 33.767 1.219 1.188c1.218 1.268 2.517 2.536 4.141 3.328 1.868.951 3.898.713 5.928.713h15.348l-3.086-4.04H12.262c-1.705 0-3.167-.318-4.547-1.19-.244-.079-.406-.079-.569 0z"/><path fill="#4CA30D" d="m3.736 27.27 1.218 1.188c1.218 1.268 2.518 2.536 4.142 3.328 1.868.951 3.898.713 5.928.713h13.642l-3.085-4.041H8.77c-1.705 0-3.167-.317-4.547-1.189a.53.53 0 0 0-.488 0z"/><path fill="#3B7C0F" d="m0 20.85 1.218 1.19c1.218 1.267 2.517 2.535 4.142 3.327 1.867.951 3.897.713 5.927.713h12.506l-3.086-4.04H5.116c-1.705 0-3.167-.318-4.548-1.19-.243-.079-.406-.079-.568 0z"/><path fill="#FCFCFD" d="M50.664 12.84v18.327h4.13v-7.572h7.864v-3.131h-7.864v-4.235h9.074V12.84H50.664zm23.562 10.268H68.15c.017-.257.07-.548.157-.873.106-.325.272-.633.5-.924.246-.291.561-.53.947-.719.403-.205.903-.308 1.5-.308.911 0 1.586.24 2.025.719.456.479.771 1.18.947 2.105zm-6.076 2.31h9.81a9.148 9.148 0 0 0-.262-2.952 7.024 7.024 0 0 0-1.21-2.515 5.76 5.76 0 0 0-2.105-1.746c-.859-.445-1.867-.667-3.024-.667-1.035 0-1.982.18-2.841.539a6.63 6.63 0 0 0-2.183 1.488 6.35 6.35 0 0 0-1.42 2.208c-.334.855-.5 1.78-.5 2.772 0 1.026.157 1.968.473 2.823a6.55 6.55 0 0 0 1.394 2.208 6.167 6.167 0 0 0 2.183 1.437c.86.325 1.824.487 2.894.487 1.543 0 2.858-.342 3.945-1.026 1.087-.685 1.894-1.823 2.42-3.414h-3.288c-.123.41-.456.804-1 1.18-.543.36-1.192.54-1.946.54-1.052 0-1.859-.265-2.42-.796-.56-.53-.868-1.386-.92-2.567zm11.079-3.44c.053-.855.272-1.566.657-2.13a4.435 4.435 0 0 1 1.474-1.36 6.292 6.292 0 0 1 1.999-.72 11.278 11.278 0 0 1 2.262-.23c.684 0 1.376.051 2.078.154a6.22 6.22 0 0 1 1.92.539 3.716 3.716 0 0 1 1.42 1.155c.368.479.552 1.12.552 1.925v6.904c0 .599.035 1.172.106 1.72.07.547.192.958.368 1.232h-3.788a8.206 8.206 0 0 1-.184-.616 8.614 8.614 0 0 1-.079-.667 4.89 4.89 0 0 1-2.104 1.257c-.807.24-1.63.36-2.473.36a6.836 6.836 0 0 1-1.814-.232 4.197 4.197 0 0 1-1.473-.718 3.484 3.484 0 0 1-1-1.232c-.228-.496-.342-1.087-.342-1.771 0-.753.132-1.37.395-1.848.28-.496.63-.89 1.052-1.18a4.73 4.73 0 0 1 1.473-.642 14.76 14.76 0 0 1 1.683-.36 29.252 29.252 0 0 1 1.657-.205 10.184 10.184 0 0 0 1.447-.231c.42-.103.754-.248 1-.437.245-.205.359-.496.341-.872 0-.394-.07-.702-.21-.924a1.22 1.22 0 0 0-.526-.54 1.743 1.743 0 0 0-.763-.256 5.12 5.12 0 0 0-.92-.077c-.737 0-1.316.154-1.736.462-.421.308-.667.822-.737 1.54h-3.735zm8.627 2.695c-.157.137-.36.248-.605.334a7.104 7.104 0 0 1-.762.18c-.263.05-.544.094-.842.128-.298.034-.596.077-.894.128-.281.051-.561.12-.842.205-.263.086-.5.206-.71.36a1.59 1.59 0 0 0-.474.539c-.123.222-.184.505-.184.847 0 .325.061.599.184.821.123.223.29.402.5.54.21.119.456.204.736.256.281.051.57.077.869.077.736 0 1.306-.12 1.71-.36.403-.24.7-.521.894-.847a2.63 2.63 0 0 0 .341-1.026c.053-.342.08-.616.08-.822v-1.36zm10.58-6.776V13.92H94.7v3.978h-2.262v2.439H94.7v7.828c0 .667.114 1.206.342 1.617.228.41.535.727.92.95.404.222.86.367 1.368.436a10.31 10.31 0 0 0 1.657.128c.368 0 .746-.008 1.131-.026a9.062 9.062 0 0 0 1.052-.102v-2.824c-.175.035-.359.06-.552.078a6.848 6.848 0 0 1-.605.025c-.631 0-1.052-.103-1.262-.308-.21-.205-.316-.616-.316-1.232v-6.57h2.735v-2.439h-2.735zm3.723-5.057v18.327h3.735V24.21c0-1.352.228-2.318.684-2.9.456-.6 1.193-.898 2.21-.898.894 0 1.517.273 1.867.82.351.531.526 1.344.526 2.44v7.494h3.735v-8.162a9.71 9.71 0 0 0-.236-2.233c-.141-.685-.395-1.258-.763-1.72-.368-.479-.877-.847-1.526-1.104-.631-.273-1.446-.41-2.446-.41-.701 0-1.42.18-2.157.539-.736.342-1.341.898-1.815 1.668h-.079V12.84h-3.735zm23.957 10.268h-6.076c.017-.257.07-.548.157-.873a3 3 0 0 1 .5-.924c.246-.291.561-.53.947-.719.403-.205.903-.308 1.499-.308.912 0 1.587.24 2.026.719.456.479.771 1.18.947 2.105zm-6.076 2.31h9.811a9.167 9.167 0 0 0-.263-2.952 7.034 7.034 0 0 0-1.21-2.515 5.76 5.76 0 0 0-2.105-1.746c-.859-.445-1.867-.667-3.024-.667-1.035 0-1.982.18-2.841.539-.842.36-1.57.855-2.183 1.488a6.345 6.345 0 0 0-1.421 2.208 7.576 7.576 0 0 0-.499 2.772c0 1.026.157 1.968.473 2.823a6.55 6.55 0 0 0 1.394 2.208 6.167 6.167 0 0 0 2.183 1.437c.859.325 1.824.487 2.894.487 1.543 0 2.858-.342 3.945-1.026 1.087-.685 1.894-1.823 2.42-3.414h-3.288c-.123.41-.456.804-1 1.18-.543.36-1.192.54-1.946.54-1.052 0-1.859-.265-2.42-.796-.561-.53-.868-1.386-.92-2.567zm11.237-7.521v13.27h3.735v-5.98c0-.6.061-1.155.184-1.669.123-.513.324-.958.605-1.335a3.053 3.053 0 0 1 1.157-.924c.474-.222 1.052-.333 1.736-.333.228 0 .465.017.71.051.246.017.456.043.632.077v-3.388a2.984 2.984 0 0 0-.816-.128c-.473 0-.929.068-1.368.205-.438.137-.85.334-1.236.59-.386.24-.728.54-1.026.899a4.271 4.271 0 0 0-.71 1.13h-.052v-2.465h-3.551zm13.958 9.882v-11.55h2.946c1.017 0 1.867.145 2.551.436.702.274 1.263.676 1.684 1.207.421.53.719 1.172.894 1.925.193.735.289 1.565.289 2.49 0 1.009-.131 1.864-.394 2.566-.263.701-.614 1.275-1.052 1.72a3.903 3.903 0 0 1-1.5.924 5.42 5.42 0 0 1-1.736.282h-3.682zm-4.13-14.938v18.326h8.102c1.438 0 2.683-.231 3.735-.693 1.069-.48 1.955-1.13 2.656-1.95.719-.822 1.254-1.797 1.605-2.927.351-1.13.526-2.361.526-3.696 0-1.523-.219-2.849-.658-3.978-.421-1.13-1.017-2.07-1.788-2.823a7.219 7.219 0 0 0-2.709-1.694c-1.035-.377-2.157-.565-3.367-.565h-8.102zm27.466 10.267h-6.076c.018-.257.07-.548.158-.873a2.98 2.98 0 0 1 .5-.924c.245-.291.561-.53.947-.719.403-.205.903-.308 1.499-.308.912 0 1.587.24 2.025.719.456.479.772 1.18.947 2.105zm-6.076 2.31h9.811a9.14 9.14 0 0 0-.263-2.952 7.017 7.017 0 0 0-1.21-2.515 5.757 5.757 0 0 0-2.104-1.746c-.859-.445-1.867-.667-3.025-.667-1.034 0-1.981.18-2.84.539-.842.36-1.57.855-2.184 1.488a6.357 6.357 0 0 0-1.42 2.208c-.333.855-.5 1.78-.5 2.772 0 1.026.158 1.968.474 2.823a6.55 6.55 0 0 0 1.394 2.208 6.167 6.167 0 0 0 2.183 1.437c.859.325 1.824.487 2.893.487 1.543 0 2.859-.342 3.946-1.026 1.087-.685 1.894-1.823 2.42-3.414h-3.288c-.123.41-.456.804-1 1.18-.543.36-1.192.54-1.946.54-1.052 0-1.859-.265-2.42-.796-.561-.53-.868-1.386-.921-2.567zm18.76 5.749 4.603-13.27h-3.709l-2.867 9.06h-.052l-2.867-9.06h-3.919l4.655 13.27h4.156z"/></g></svg>