<svg xmlns="http://www.w3.org/2000/svg" width="198" height="84" viewBox="0 0 198 84" fill="none">
<g opacity="0.8">
<g clip-path="url(#clip0_4339_32049)">
<g filter="url(#filter0_i_4339_32049)">
<mask id="mask0_4339_32049" style="mask-type:luminance" maskUnits="userSpaceOnUse" x="20" y="16" width="53" height="51">
<path d="M73 41.6667C73 27.8675 61.1355 16.681 46.5 16.681C31.8645 16.681 20 27.8675 20 41.6667C20 55.466 31.8645 66.6525 46.5 66.6525C61.1355 66.6525 73 55.466 73 41.6667Z" fill="white"/>
</mask>
<g mask="url(#mask0_4339_32049)">
<path d="M73 41.6667C73 27.8675 61.1355 16.681 46.5 16.681C31.8645 16.681 20 27.8675 20 41.6667C20 55.466 31.8645 66.6525 46.5 66.6525C61.1355 66.6525 73 55.466 73 41.6667Z" fill="#EDF1FD"/>
<path d="M45.8134 33.5029V23.6335H82.1184V33.5029H45.8134Z" fill="url(#paint0_linear_4339_32049)"/>
<path d="M45.8134 33.5029V23.6335H82.1184V33.5029H45.8134Z" stroke="url(#paint1_linear_4339_32049)" stroke-width="0.0713878"/>
<path d="M45.8134 33.5029V23.6335H82.1184V33.5029H45.8134Z" stroke="white" stroke-opacity="0.2" stroke-width="0.0713878"/>
<path d="M45.8134 33.5029V23.6335H82.1184V33.5029H45.8134Z" stroke="url(#paint2_radial_4339_32049)" stroke-width="0.0713878"/>
<path d="M73 23.5651H45.8375V33.5593H73V23.5651Z" fill="url(#paint3_linear_4339_32049)" fill-opacity="0.2"/>
<g filter="url(#filter1_ii_4339_32049)">
<path d="M46.5203 59.8186C35.9155 59.8186 27.2877 51.6838 27.2877 41.6849C27.2877 31.6861 35.9155 23.5525 46.5203 23.5525C57.1252 23.5525 65.7517 31.6874 65.7517 41.6849C65.7517 51.6827 57.124 59.8186 46.5203 59.8186ZM46.5203 33.5744C44.2395 33.5767 42.0528 34.4318 40.44 35.9524C38.827 37.4729 37.9198 39.5344 37.917 41.6849C37.9193 43.8356 38.8265 45.8976 40.4395 47.4184C42.0526 48.9393 44.2394 49.7946 46.5203 49.7969C48.8011 49.7942 50.9878 48.9387 52.6004 47.418C54.213 45.8973 55.1201 43.8355 55.1225 41.6849C55.1197 39.5348 54.2126 37.4733 52.5999 35.9527C50.9874 34.4322 48.801 33.5769 46.5203 33.5744Z" fill="url(#paint4_linear_4339_32049)"/>
<path d="M46.5203 59.8186C35.9155 59.8186 27.2877 51.6838 27.2877 41.6849C27.2877 31.6861 35.9155 23.5525 46.5203 23.5525C57.1252 23.5525 65.7517 31.6874 65.7517 41.6849C65.7517 51.6827 57.124 59.8186 46.5203 59.8186ZM46.5203 33.5744C44.2395 33.5767 42.0528 34.4318 40.44 35.9524C38.827 37.4729 37.9198 39.5344 37.917 41.6849C37.9193 43.8356 38.8265 45.8976 40.4395 47.4184C42.0526 48.9393 44.2394 49.7946 46.5203 49.7969C48.8011 49.7942 50.9878 48.9387 52.6004 47.418C54.213 45.8973 55.1201 43.8355 55.1225 41.6849C55.1197 39.5348 54.2126 37.4733 52.5999 35.9527C50.9874 34.4322 48.801 33.5769 46.5203 33.5744Z" fill="url(#paint5_radial_4339_32049)" fill-opacity="0.1"/>
</g>
<path d="M46.5195 33.5114C44.2211 33.5137 42.0174 34.3754 40.3922 35.9076C38.7668 37.4398 37.8526 39.5173 37.8498 41.6843C37.8521 43.8515 38.7663 45.9295 40.3918 47.4621C42.0172 48.9946 44.2208 49.8564 46.5194 49.8588C48.8178 49.8561 51.0213 48.9939 52.6463 47.4616C54.2714 45.9291 55.1854 43.8515 55.1878 41.6844C55.185 39.5176 54.2709 37.4403 52.6458 35.908C51.0209 34.3758 48.8177 33.5139 46.5195 33.5114ZM46.5194 59.7556C35.9512 59.7556 27.353 51.6488 27.353 41.6843C27.353 31.72 35.9512 23.6144 46.5194 23.6144C57.0876 23.6144 65.6846 31.7213 65.6846 41.6843C65.6846 51.6476 57.0864 59.7556 46.5194 59.7556Z" stroke="url(#paint6_linear_4339_32049)" stroke-width="0.0713878"/>
<path d="M46.5195 33.5114C44.2211 33.5137 42.0174 34.3754 40.3922 35.9076C38.7668 37.4398 37.8526 39.5173 37.8498 41.6843C37.8521 43.8515 38.7663 45.9295 40.3918 47.4621C42.0172 48.9946 44.2208 49.8564 46.5194 49.8588C48.8178 49.8561 51.0213 48.9939 52.6463 47.4616C54.2714 45.9291 55.1854 43.8515 55.1878 41.6844C55.185 39.5176 54.2709 37.4403 52.6458 35.908C51.0209 34.3758 48.8177 33.5139 46.5195 33.5114ZM46.5194 59.7556C35.9512 59.7556 27.353 51.6488 27.353 41.6843C27.353 31.72 35.9512 23.6144 46.5194 23.6144C57.0876 23.6144 65.6846 31.7213 65.6846 41.6843C65.6846 51.6476 57.0864 59.7556 46.5194 59.7556Z" stroke="white" stroke-opacity="0.2" stroke-width="0.0713878"/>
<path d="M46.5195 33.5114C44.2211 33.5137 42.0174 34.3754 40.3922 35.9076C38.7668 37.4398 37.8526 39.5173 37.8498 41.6843C37.8521 43.8515 38.7663 45.9295 40.3918 47.4621C42.0172 48.9946 44.2208 49.8564 46.5194 49.8588C48.8178 49.8561 51.0213 48.9939 52.6463 47.4616C54.2714 45.9291 55.1854 43.8515 55.1878 41.6844C55.185 39.5176 54.2709 37.4403 52.6458 35.908C51.0209 34.3758 48.8177 33.5139 46.5195 33.5114ZM46.5194 59.7556C35.9512 59.7556 27.353 51.6488 27.353 41.6843C27.353 31.72 35.9512 23.6144 46.5194 23.6144C57.0876 23.6144 65.6846 31.7213 65.6846 41.6843C65.6846 51.6476 57.0864 59.7556 46.5194 59.7556Z" stroke="url(#paint7_radial_4339_32049)" stroke-width="0.0713878"/>
</g>
</g>
<path opacity="0.9" d="M96.3631 53.5153C90.6391 53.5153 87.1266 50.4796 86.7689 45.9413L91.0619 45.696C91.4521 48.5171 93.2409 50.081 96.4281 50.081C99.16 50.081 100.721 49.1304 100.721 47.2598C100.721 45.5733 99.8105 44.5614 95.0947 43.5188C89.3707 42.2922 87.2242 40.759 87.2242 37.202C87.2242 33.3996 90.3789 30.7625 95.55 30.7625C101.079 30.7625 104.103 33.7982 104.624 37.9992L100.363 38.1832C100.071 35.8221 98.412 34.1969 95.4849 34.1969C93.0457 34.1969 91.5497 35.3621 91.5497 37.0486C91.5497 38.8272 92.623 39.5018 96.7533 40.391C102.965 41.6483 105.047 43.7948 105.047 47.0452C105.047 51.0315 101.599 53.5153 96.3631 53.5153ZM107.497 34.4728V30.9771H111.823V34.4728H107.497ZM107.562 53.0247V36.65H111.725V53.0247H107.562ZM122.418 57.9923C117.832 57.9923 115.296 56.1218 114.515 53.3314L118.808 53.0554C119.231 54.3126 120.174 55.0179 122.418 55.0179C124.987 55.0179 126.418 53.9753 126.418 51.6755V49.5903C125.605 51.1849 123.621 52.2275 121.377 52.2275C117.052 52.2275 113.995 49.0384 113.995 44.2854C113.995 39.5938 117.019 36.282 121.312 36.282C123.817 36.282 125.703 37.4166 126.548 39.1951V36.65H130.614V51.5835C130.614 55.7845 127.362 57.9923 122.418 57.9923ZM122.353 49.161C124.825 49.161 126.418 47.3212 126.451 44.2547C126.483 41.219 124.857 39.3485 122.353 39.3485C119.816 39.3485 118.32 41.2496 118.32 44.2547C118.32 47.2598 119.881 49.161 122.353 49.161ZM134.195 53.0247V36.65H137.968L138.065 39.3791C138.943 37.4166 140.7 36.282 142.846 36.282C145.383 36.282 147.139 37.5393 147.887 39.6551C148.668 37.4779 150.457 36.282 152.863 36.282C156.441 36.282 158.653 38.4592 158.653 42.5069V53.0247H154.49V43.5188C154.49 40.8203 153.546 39.4711 151.53 39.4711C149.546 39.4711 148.343 41.0043 148.343 43.6415V53.0247H144.473V43.6415C144.473 40.9737 143.692 39.4711 141.578 39.4711C139.594 39.4711 138.358 41.035 138.358 43.6415V53.0247H134.195ZM166.877 53.3927C163.235 53.3927 160.828 51.7675 160.828 48.9157C160.828 46.0946 162.682 44.592 166.487 43.8868L172.243 42.8135C172.243 40.5137 171.105 39.3178 168.894 39.3178C166.877 39.3178 165.739 40.2071 165.349 41.8629L161.121 41.6789C161.804 38.2445 164.601 36.282 168.894 36.282C173.837 36.282 176.406 38.7352 176.406 43.0895V49.0384C176.406 49.9276 176.732 50.1729 177.382 50.1729H177.935V53.0247C177.642 53.0861 176.992 53.1474 176.406 53.1474C174.52 53.1474 173.122 52.5034 172.796 50.5102C171.918 52.2581 169.707 53.3927 166.877 53.3927ZM167.723 50.5409C170.487 50.5409 172.243 48.885 172.243 46.4012V45.4813L167.755 46.3399C165.901 46.6772 165.153 47.4132 165.153 48.5477C165.153 49.8356 166.064 50.5409 167.723 50.5409Z" fill="#4F547C"/>
</g>
</g>
<defs>
<filter id="filter0_i_4339_32049" x="19.762" y="16.4431" width="53.238" height="50.2094" filterUnits="userSpaceOnUse" color-interpolation-filters="sRGB">
<feFlood flood-opacity="0" result="BackgroundImageFix"/>
<feBlend mode="normal" in="SourceGraphic" in2="BackgroundImageFix" result="shape"/>
<feColorMatrix in="SourceAlpha" type="matrix" values="0 0 0 0 0 0 0 0 0 0 0 0 0 0 0 0 0 0 127 0" result="hardAlpha"/>
<feOffset dx="-0.237959" dy="-0.237959"/>
<feGaussianBlur stdDeviation="0.475918"/>
<feComposite in2="hardAlpha" operator="arithmetic" k2="-1" k3="1"/>
<feColorMatrix type="matrix" values="0 0 0 0 0.309804 0 0 0 0 0.333333 0 0 0 0 0.486275 0 0 0 0.2 0"/>
<feBlend mode="normal" in2="shape" result="effect1_innerShadow_4339_32049"/>
</filter>
<filter id="filter1_ii_4339_32049" x="27.2877" y="23.2669" width="38.4641" height="36.8372" filterUnits="userSpaceOnUse" color-interpolation-filters="sRGB">
<feFlood flood-opacity="0" result="BackgroundImageFix"/>
<feBlend mode="normal" in="SourceGraphic" in2="BackgroundImageFix" result="shape"/>
<feColorMatrix in="SourceAlpha" type="matrix" values="0 0 0 0 0 0 0 0 0 0 0 0 0 0 0 0 0 0 127 0" result="hardAlpha"/>
<feOffset dy="-0.285551"/>
<feGaussianBlur stdDeviation="0.142776"/>
<feComposite in2="hardAlpha" operator="arithmetic" k2="-1" k3="1"/>
<feColorMatrix type="matrix" values="0 0 0 0 1 0 0 0 0 1 0 0 0 0 1 0 0 0 0.1 0"/>
<feBlend mode="normal" in2="shape" result="effect1_innerShadow_4339_32049"/>
<feColorMatrix in="SourceAlpha" type="matrix" values="0 0 0 0 0 0 0 0 0 0 0 0 0 0 0 0 0 0 127 0" result="hardAlpha"/>
<feOffset dy="0.285551"/>
<feGaussianBlur stdDeviation="0.142776"/>
<feComposite in2="hardAlpha" operator="arithmetic" k2="-1" k3="1"/>
<feColorMatrix type="matrix" values="0 0 0 0 1 0 0 0 0 1 0 0 0 0 1 0 0 0 0.1 0"/>
<feBlend mode="normal" in2="effect1_innerShadow_4339_32049" result="effect2_innerShadow_4339_32049"/>
</filter>
<linearGradient id="paint0_linear_4339_32049" x1="45.7472" y1="28.5682" x2="82.1847" y2="28.5682" gradientUnits="userSpaceOnUse">
<stop stop-color="#6CAFFD"/>
<stop offset="1" stop-color="#426EFF"/>
</linearGradient>
<linearGradient id="paint1_linear_4339_32049" x1="63.9659" y1="13.8707" x2="63.9659" y2="28.0643" gradientUnits="userSpaceOnUse">
<stop stop-color="white"/>
<stop offset="1" stop-color="white" stop-opacity="0"/>
</linearGradient>
<radialGradient id="paint2_radial_4339_32049" cx="0" cy="0" r="1" gradientUnits="userSpaceOnUse" gradientTransform="translate(63.9659 23.5711) rotate(90) scale(2.3096 8.42043)">
<stop stop-color="white"/>
<stop offset="1" stop-color="white" stop-opacity="0"/>
</radialGradient>
<linearGradient id="paint3_linear_4339_32049" x1="53.4804" y1="35.487" x2="57.2887" y2="23.3608" gradientUnits="userSpaceOnUse">
<stop/>
<stop offset="1" stop-opacity="0"/>
</linearGradient>
<linearGradient id="paint4_linear_4339_32049" x1="27.2877" y1="41.6856" x2="65.7517" y2="41.6856" gradientUnits="userSpaceOnUse">
<stop stop-color="#616588"/>
<stop offset="1" stop-color="#444A74"/>
</linearGradient>
<radialGradient id="paint5_radial_4339_32049" cx="0" cy="0" r="1" gradientUnits="userSpaceOnUse" gradientTransform="translate(46.5197 23.5525) rotate(90) scale(40.2279 42.666)">
<stop stop-color="white"/>
<stop offset="1" stop-color="white" stop-opacity="0"/>
</radialGradient>
<linearGradient id="paint6_linear_4339_32049" x1="46.5188" y1="-11.6476" x2="46.5188" y2="39.8564" gradientUnits="userSpaceOnUse">
<stop stop-color="white"/>
<stop offset="1" stop-color="white" stop-opacity="0"/>
</linearGradient>
<radialGradient id="paint7_radial_4339_32049" cx="0" cy="0" r="1" gradientUnits="userSpaceOnUse" gradientTransform="translate(46.5188 23.5519) rotate(90) scale(8.38082 8.88875)">
<stop stop-color="white"/>
<stop offset="1" stop-color="white" stop-opacity="0"/>
</radialGradient>
<clipPath id="clip0_4339_32049">
<rect width="159" height="49.9714" fill="white" transform="translate(20 16.6818)"/>
</clipPath>
</defs>
</svg>