<svg xmlns="http://www.w3.org/2000/svg" width="198" height="84" viewBox="0 0 198 84" fill="none" class="">
<g clip-path="url(#clip0_4339_32001)">
<path d="M35.0683 19.9985H17V63.9985L35.0683 19.9985Z" fill="#FA0C00"/>
<path d="M47.78 19.9984H65.8248V63.9984L47.78 19.9984Z" fill="#FA0C00"/>
<path d="M41.4253 36.2145L52.9254 63.9976H45.3803L41.9432 55.1521H33.527L41.4253 36.2145Z" fill="#FA0C00"/>
<path d="M95.3027 47.9793L97.4332 54.1999C97.5038 54.3557 97.6098 54.4276 97.7981 54.4276H101.894C102.118 54.4276 102.153 54.3198 102.118 54.092L93.6548 30.1563C93.6194 29.9645 93.5841 29.9286 93.3958 29.9286H88.3108C88.1695 29.9286 88.0871 30.0365 88.0871 30.1923C88.0165 31.4508 87.9106 31.8343 87.7575 32.2059L80.2124 54.0561C80.1771 54.3198 80.2595 54.4276 80.4713 54.4276H84.1321C84.3557 54.4276 84.4617 54.3557 84.5441 54.128L86.5569 47.9793H95.3027ZM87.7222 43.9161C88.8287 40.5121 90.2883 36.1492 90.8768 33.6562H90.9121C91.6419 36.2691 93.3605 41.447 94.1374 43.9161H87.7222Z" fill="#FA0C00"/>
<path d="M112.998 54.7993C115.199 54.7993 117.542 54.3918 119.919 53.3491C120.108 53.2771 120.143 53.1932 120.143 53.0134C120.072 52.3422 119.99 51.3714 119.99 50.6283V28.0949C119.99 27.9511 119.99 27.8792 119.814 27.8792H115.823C115.67 27.8792 115.6 27.9511 115.6 28.1428V35.7778C114.976 35.7059 114.54 35.6699 114.022 35.6699C107.584 35.6699 103.629 39.9968 103.629 45.4024C103.629 51.671 107.69 54.7993 112.998 54.7993ZM115.6 50.6283C114.94 50.844 114.211 50.9279 113.469 50.9279C110.55 50.9279 108.16 49.2499 108.16 45.1747C108.16 41.567 110.62 39.4335 113.881 39.4335C114.54 39.4335 115.117 39.5054 115.6 39.6972V50.6283Z" fill="#FA0C00"/>
<path d="M132.874 35.6697C127.377 35.6697 123.975 39.9606 123.975 45.2583C123.975 49.9927 126.682 54.7991 132.791 54.7991C137.959 54.7991 141.584 50.9276 141.584 45.1385C141.584 40.0325 138.512 35.6697 132.874 35.6697ZM132.65 39.4332C135.758 39.4332 137.076 42.154 137.076 45.2583C137.076 49.0938 135.134 50.9996 132.874 50.9996C130.084 50.9996 128.436 48.6144 128.436 45.1744C128.436 41.6386 130.19 39.4332 132.65 39.4332Z" fill="#FA0C00"/>
<path d="M145.71 27.8792C145.557 27.8792 145.451 27.9511 145.451 28.1428V53.6487C145.451 53.7566 145.557 53.9484 145.71 53.9843C147.464 54.5356 149.3 54.7993 151.195 54.7993C156.621 54.7993 161.895 51.3714 161.895 44.4675C161.895 39.4695 158.528 35.6699 153.255 35.6699C152.043 35.6699 150.913 35.8617 149.924 36.1973L149.877 28.1788C149.877 27.9151 149.806 27.8792 149.547 27.8792H145.71ZM157.386 44.923C157.386 49.0581 154.609 50.9998 151.607 50.9998C150.983 50.9998 150.43 50.9639 149.924 50.8081V39.9249C150.501 39.6972 151.195 39.5054 152.478 39.5054C155.374 39.5054 157.386 41.3752 157.386 44.923Z" fill="#FA0C00"/>
<path d="M176.785 46.2652C178.575 46.2652 180.046 46.2292 180.552 46.1093C180.74 46.0734 180.811 46.0015 180.846 45.8457C180.952 45.4381 180.999 44.5871 180.999 43.5444C180.999 39.9966 178.904 35.6697 173.49 35.6697C167.957 35.6697 164.885 40.2602 164.885 45.4381C164.885 50.0287 167.263 54.7991 173.925 54.7991C176.42 54.7991 178.033 54.3915 179.422 53.7203C179.563 53.6484 179.634 53.5286 179.634 53.3128V50.2085C179.634 50.0287 179.528 49.9927 179.422 50.0647C178.033 50.664 176.526 50.9636 174.879 50.9636C171.147 50.9636 169.452 48.8661 169.346 46.2652H176.785ZM169.346 43.053C169.64 41.2311 170.77 39.2534 173.301 39.2534C176.091 39.2534 176.821 41.6386 176.821 42.7173C176.821 42.7533 176.821 42.9091 176.821 43.017C176.668 43.053 176.197 43.053 174.808 43.053H169.346Z" fill="#FA0C00"/>
</g>
<defs>
<clipPath id="clip0_4339_32001">
<rect width="164" height="44" fill="white" transform="translate(17 20)"/>
</clipPath>
</defs>
</svg>