<svg xmlns="http://www.w3.org/2000/svg" width="198" height="84" viewBox="0 0 198 84" fill="none">
<path d="M42.6567 39.5302V40.0558C42.9801 40.1692 43.0872 40.272 43.1197 40.7479V52.8613C43.1197 59.5984 48.5492 61.3788 54.2769 65.9052C60.0057 61.3788 65.4352 59.5984 65.4352 52.8613V40.6122C65.4772 40.2455 65.5916 40.1565 65.8824 40.0558V39.5302H42.6567Z" fill="#910333"/>
<path d="M56.5349 59.2485C56.5349 59.2485 57.4629 58.85 57.97 57.2996C58.4182 58.2438 58.2996 59.2136 58.2996 59.2136C57.8912 59.3079 56.5349 59.2485 56.5349 59.2485Z" fill="white"/>
<path d="M60.4141 56.1336C57.7025 56.5119 57.2374 50.7753 57.2374 50.7753C57.2374 50.7753 58.1476 53.7109 60.0824 53.6071C62.0854 53.5032 61.5174 50.3864 61.5174 50.3864C61.5174 50.3864 63.4648 55.7097 60.4141 56.1336Z" fill="white"/>
<path d="M47.954 54.8251C47.0238 55.143 45.3505 55.4472 45.3505 55.4472C45.3505 55.4472 46.8979 54.2634 48.0537 50.6103L49.1654 51.6266L48.9586 52.325C48.9586 52.325 49.4898 53.0892 49.6221 53.6095C49.6221 53.6095 50.3527 52.1894 49.5496 50.6643L49.4058 51.0904L48.9702 50.6908L48.2217 49.9999C48.2217 49.9999 48.5607 48.8055 49.6168 47.3398L49.7176 47.4521L50.5753 48.4589L50.3149 48.8966C50.3149 48.8966 50.9049 49.5219 51.4057 50.2945C51.4057 50.2945 51.6702 49.0174 51.3028 47.6333L50.9144 48L49.9601 46.8841C51.3144 45.5212 52.6276 44.6945 54.1918 44.1636C54.0942 44.2696 54.005 44.384 53.921 44.5048C53.3877 45.2626 52.8502 46.6308 53.2848 48.8394C53.352 49.1849 53.4664 49.6724 53.584 50.1874C53.8181 51.1964 54.0785 52.3399 54.1698 53.0595C54.3556 54.5601 54.2065 55.5426 53.711 56.0619C53.3646 56.4254 52.8061 56.5854 52.0293 56.5568C52.0335 56.4317 52.0377 56.3141 52.0377 56.1975C52.0377 55.1398 51.8267 54.3407 51.8162 54.3026L51.624 53.5756L51.3007 54.2539C50.7926 55.3242 49.0594 57.9865 46.8013 58.5068C46.8013 58.5068 46.7971 58.5068 46.7971 58.5085C47.9298 56.7514 47.954 54.8251 47.954 54.8251Z" fill="white"/>
<path d="M63.6894 45.3261L61.0156 45.4416C61.0187 45.7596 60.9757 46.0796 60.8749 46.3838C61.1227 47.4859 60.9526 48.0868 60.9526 48.0868C60.5043 47.0345 60.1621 46.7409 60.1621 46.7409C57.7087 45.6398 56.3314 48.1314 56.4763 49.7391C56.5949 51.0596 57.0726 52.8125 57.441 55.5626C57.7539 57.8783 56.5949 58.8787 55.2585 59.1097C55.2291 59.114 55.2008 59.1193 55.1703 59.1214C55.163 59.1257 55.1567 59.1257 55.1493 59.1257C54.9341 59.1543 54.7021 59.1638 54.4607 59.1585C54.4544 59.1585 54.4418 59.1585 54.4376 59.1568C54.4103 59.1568 54.383 59.156 54.3557 59.1551C54.2518 59.1466 54.1499 59.137 54.0491 59.1223C53.0098 58.9792 50.6845 58.5521 48.2858 58.4938C49.6946 57.6619 50.8011 56.2195 51.4163 55.1968C51.4519 55.4777 51.4813 55.8263 51.4813 56.2057C51.4813 56.3944 51.4761 56.5936 51.4572 56.7971L51.4331 57.0758L51.7091 57.1013C52.8135 57.1966 53.5998 56.9858 54.109 56.4516C54.7378 55.7924 54.931 54.6934 54.7189 52.9914C54.6276 52.2432 54.3588 51.0838 54.1226 50.0621C54.0061 49.5503 53.8959 49.067 53.8276 48.731C53.4319 46.7174 53.9043 45.4976 54.3725 44.8247C54.741 44.3011 55.2449 43.9175 55.7992 43.7288C55.8097 43.7288 55.8181 43.728 55.8317 43.7246L56.7387 40.896H57.0264L56.4133 43.6133C56.5571 43.59 56.702 43.5667 56.8468 43.5444L57.6342 41.0358H57.9187L57.4043 43.4659C58.2168 43.36 59.1018 43.2773 60.0844 43.2031C60.244 43.2699 60.4151 43.4554 60.5663 43.7161L63.1372 42.9138L63.2317 43.1925L60.7731 44.158C60.7951 44.2089 60.813 44.2629 60.8287 44.317L63.5183 43.9757L63.5634 44.2693L60.9547 44.7949C60.9631 44.8448 60.9715 44.8945 60.9799 44.9433L63.6947 45.0313L63.6894 45.3269" fill="white"/>
<path d="M55.9441 46.5406C56.4848 46.158 57.4023 45.8645 58.2621 45.9302C58.4794 45.9492 58.6662 45.8899 58.429 45.7638C57.7855 45.4215 56.2864 45.538 55.7531 45.9037C54.9038 46.4919 55.0486 47.5336 55.0686 47.557C55.2376 47.257 55.5253 46.8363 55.9441 46.5406Z" fill="#910333"/>
<path d="M68.6107 39.5259H178.956V40.0558H68.6107V39.5259Z" fill="#910333"/>
<path d="M58.4581 64.0368L54.2737 67.0435L50.0902 64.0368C47.1162 61.9851 44.5693 60.2237 43.234 57.5477C44.3363 62.5616 49.1905 64.4353 54.2737 68.4551C59.3568 64.4353 64.2121 62.5616 65.3112 57.5477C63.9769 60.2237 61.4312 61.9851 58.4581 64.0368Z" fill="#5F5A65"/>
<path d="M25.4296 22.5067C24.0365 22.5067 23.3804 23.0885 23.8224 24.6051L26.4542 34.2068H26.6463L31.0901 22.1273H31.783L36.1596 34.051H36.3506C37.3469 30.9257 38.2739 27.7569 39.2491 24.5839C39.668 23.1998 39.2922 22.529 37.5023 22.5067V21.927H42.366V22.5067C41.7025 22.5067 40.8165 23.0207 40.4406 24.248L36.3296 37.5579H35.3113L30.8686 25.4328L26.4458 37.5579H25.4937L22.1564 25.6119C21.5359 23.4234 20.8105 22.5067 19.6368 22.5067V21.927H25.4296V22.5067Z" fill="#5F5A65"/>
<path d="M41.4083 32.2623L40.6525 34.4836C40.4383 35.1322 40.7512 35.6812 41.4755 35.6812V36.1125H38.4825V35.6812C38.9277 35.6812 39.4043 35.4003 39.6667 34.8524C40.3732 33.3909 42.2965 27.9606 43.6622 24.2937H44.5808C45.6988 27.6289 47.3764 32.7434 47.9349 34.2186C48.2971 35.1502 48.5606 35.6812 49.265 35.6812V36.1125H45.4385V35.6812C46.4715 35.6812 46.5712 35.1322 46.3077 34.403L45.6012 32.2623H41.4083ZM45.3881 31.6296L43.6433 26.2342H43.6129L41.6571 31.6296H45.3881Z" fill="#5F5A65"/>
<path d="M54.9068 26.9644C54.7777 25.8039 54.151 24.8734 52.8366 24.8734C51.8823 24.8734 51.0289 25.3715 51.0289 26.5998C51.0289 27.7624 52.1784 28.4587 53.8213 29.7061C55.5661 31.016 56.1235 31.8627 56.1235 33.2394C56.1235 35.2159 54.1184 36.3117 52.1479 36.3117C51.0971 36.3117 50.1922 36.1125 49.3355 35.7818C49.2694 35.7469 49.2222 35.6812 49.2222 35.5487V33.1578H49.6505C49.829 34.9986 51.0289 35.731 52.2949 35.731C53.4623 35.731 54.4145 34.8333 54.4145 33.6241C54.4145 32.5421 53.8413 31.6646 51.3753 30.0208C50.4851 29.422 49.3849 28.7745 49.3849 26.9644C49.3849 25.4711 51.0289 24.2937 52.9195 24.2937C53.625 24.2937 54.5635 24.3764 55.2207 24.6074C55.3215 24.6424 55.3362 24.706 55.3362 24.7907V26.9644H54.9068Z" fill="#5F5A65"/>
<path d="M59.6268 34.0373C59.6268 35.5804 59.5617 35.4967 61.0398 35.6811V36.1124H56.618V35.6811C58.0983 35.4967 58.0311 35.5804 58.0311 34.0373V26.5669C58.0311 25.0228 58.0983 25.1065 56.618 24.921V24.4918H61.0398V24.921C59.5617 25.1065 59.6268 25.0228 59.6268 26.5669V29.4379H65.3964V26.5669C65.3964 25.0228 65.4605 25.1065 63.9813 24.921V24.4918H68.403V24.921C66.9239 25.1065 66.9911 25.0228 66.9911 26.5669V34.0373C66.9911 35.5804 66.9239 35.4967 68.403 35.6811V36.1124H63.9813V35.6811C65.4605 35.4967 65.3964 35.5804 65.3964 34.0373V30.1193H59.6268V34.0373Z" fill="#5F5A65"/>
<path d="M72.2012 34.0373C72.2012 35.5804 72.1319 35.4967 73.6142 35.6811V36.1124H69.1914V35.6811C70.6706 35.4967 70.6034 35.5804 70.6034 34.0373V26.5669C70.6034 25.0228 70.6706 25.1065 69.1914 24.921V24.4918H73.6142V24.921C72.1319 25.1065 72.2012 25.0228 72.2012 26.5669V34.0373Z" fill="#5F5A65"/>
<path d="M84.8166 36.1124C82.2068 32.9913 79.492 29.7208 76.8171 26.533V33.872C76.8171 34.2186 76.8801 34.5016 76.9106 34.7676C76.9956 35.3663 77.5541 35.5995 78.6385 35.6811V36.1124H74.6105V35.6811C75.3999 35.5995 75.9427 35.3663 76.0245 34.7676C76.0571 34.5016 76.1232 34.2186 76.1232 33.872V26.0529C75.6624 25.4531 75.1553 24.921 74.2168 24.921V24.4918H77.2077C79.6558 27.4974 82.2068 30.5506 84.6549 33.5562H84.6875V26.7333C84.6875 26.3846 84.6224 26.1006 84.5867 25.8356C84.5079 25.239 83.9484 25.0058 82.8619 24.921V24.4918H86.891V24.921C86.1183 25.0058 85.5577 25.239 85.478 25.8356C85.4423 26.1006 85.3782 26.3846 85.3782 26.7333V36.1124H84.8166Z" fill="#5F5A65"/>
<path d="M86.7218 30.237C86.7218 27.6787 88.8613 24.2937 93.2998 24.2937C94.8955 24.2937 95.6482 24.5915 96.4545 24.8554C96.9132 25.0059 97.0948 25.239 97.0948 25.5029V27.6479H96.6676C96.6183 26.319 95.7784 24.8734 93.1675 24.8734C89.7305 24.8734 88.6135 27.2632 88.5957 30.1035C88.58 32.7265 89.8974 35.731 93.2337 35.731C95.2881 35.731 95.4687 34.9658 95.4687 33.6739V32.6597C95.4687 31.1156 95.5317 31.1982 93.7271 31.016V30.5836H98.4753V31.016C96.9962 31.1982 97.0633 31.1156 97.0633 32.6597V35.5487C96.0104 35.9631 94.6289 36.3117 93.135 36.3117C89.7662 36.3117 86.7218 34.6839 86.7218 30.237Z" fill="#5F5A65"/>
<path d="M103.67 34.0373C103.67 35.5804 103.602 35.4967 105.083 35.6811V36.1124H100.663V35.6811C102.141 35.4967 102.076 35.5804 102.076 34.0373V25.0228H100.742C99.312 25.0228 98.9824 25.9342 98.4407 27.0332H98.0271L98.4733 24.4918H107.272L107.714 27.0332H107.301C106.761 25.9342 106.43 25.0228 105.003 25.0228H103.67V34.0373Z" fill="#5F5A65"/>
<path d="M107.351 30.5189C107.351 26.9305 110.112 24.2937 113.531 24.2937C117.099 24.2937 119.169 27.3978 119.169 29.954C119.169 33.4567 116.572 36.3117 112.94 36.3117C109.802 36.3117 107.351 33.7375 107.351 30.5189ZM117.297 30.4511C117.297 26.4843 115.174 24.8734 113.169 24.8734C110.376 24.8734 109.226 27.3978 109.226 29.6552C109.226 33.6739 111.262 35.731 113.381 35.731C116.44 35.731 117.297 32.6788 117.297 30.4511Z" fill="#5F5A65"/>
<path d="M129.228 36.1124C126.614 32.9913 123.902 29.7208 121.222 26.533V33.872C121.222 34.2186 121.29 34.5016 121.32 34.7676C121.403 35.3663 121.96 35.5995 123.048 35.6811V36.1124H119.02V35.6811C119.808 35.5995 120.349 35.3663 120.434 34.7676C120.468 34.5016 120.533 34.2186 120.533 33.872V26.0529C120.073 25.4531 119.56 24.921 118.625 24.921V24.4918H121.617C124.066 27.4974 126.614 30.5506 129.062 33.5562H129.095V26.7333C129.095 26.3846 129.031 26.1006 128.997 25.8356C128.915 25.239 128.356 25.0058 127.271 24.921V24.4918H131.297V24.921C130.527 25.0058 129.966 25.239 129.883 25.8356C129.853 26.1006 129.788 26.3846 129.788 26.7333V36.1124H129.228Z" fill="#5F5A65"/>
<path d="M143.413 25.2536C143.234 23.6894 142.397 22.4399 140.628 22.4399C139.345 22.4399 138.047 23.1075 138.047 24.7629C138.047 26.3261 139.597 27.263 141.807 28.9374C144.152 30.7009 144.901 31.8423 144.901 33.6927C144.901 36.3517 142.352 37.8248 139.699 37.8248C138.285 37.8248 137.067 37.5578 135.918 37.1116C135.831 37.065 135.762 36.976 135.762 36.7979V33.5825H136.338C136.581 36.0614 138.194 37.0427 139.897 37.0427C141.469 37.0427 142.897 35.8388 142.897 34.2067C142.897 32.758 142.123 31.5721 138.806 29.3624C137.614 28.558 136.13 27.6869 136.13 25.2536C136.13 23.2432 138.194 21.6577 140.736 21.6577C141.688 21.6577 142.95 21.769 143.835 22.0816C143.965 22.1272 143.989 22.2173 143.989 22.3264V25.2536H143.413Z" fill="#5F5A65"/>
<path d="M150.353 34.0373C150.353 35.5804 150.287 35.4967 151.766 35.6811V36.1124H147.342V35.6811C148.823 35.4967 148.758 35.5804 148.758 34.0373V25.0228H147.423C145.995 25.0228 145.667 25.9342 145.122 27.0332H144.713L145.157 24.4918H153.953L154.399 27.0332H153.987C153.446 25.9342 153.113 25.0228 151.686 25.0228H150.353V34.0373Z" fill="#5F5A65"/>
<path d="M155.316 32.2623L154.559 34.4836C154.345 35.1322 154.657 35.6812 155.381 35.6812V36.1125H152.389V35.6812C152.834 35.6812 153.31 35.4003 153.573 34.8524C154.278 33.3909 156.203 27.9606 157.566 24.2937H158.487C159.604 27.6289 161.28 32.7434 161.839 34.2186C162.201 35.1502 162.465 35.6812 163.171 35.6812V36.1125H159.341V35.6812C160.376 35.6812 160.475 35.1322 160.213 34.403L159.504 32.2623H155.316ZM159.292 31.6296L157.551 26.2342H157.516L155.562 31.6296H159.292Z" fill="#5F5A65"/>
<path d="M166.883 34.0373C166.883 35.5804 166.818 35.4967 168.3 35.6811V36.1124H163.875V35.6811C165.356 35.4967 165.29 35.5804 165.29 34.0373V25.0228H163.955C162.526 25.0228 162.199 25.9342 161.655 27.0332H161.243L161.686 24.4918H170.485L170.929 27.0332H170.518C169.977 25.9342 169.647 25.0228 168.216 25.0228H166.883V34.0373Z" fill="#5F5A65"/>
<path d="M170.927 35.6811C172.406 35.4967 172.194 35.5804 172.194 34.0373V26.5669C172.194 25.0228 172.406 25.1065 170.927 24.921V24.4918H178.127V27.1636H177.7C177.535 25.9342 177.205 25.0228 176.023 25.0228H173.787V29.7706H175.167C176.203 29.7706 176.648 29.3541 176.68 28.3272H177.107V31.8627H176.68C176.648 30.8834 176.268 30.3037 175.167 30.3037H173.787V34.0522C173.787 35.4649 174.427 35.5804 175.907 35.5804C178.291 35.5804 178.177 34.9011 178.934 33.1238H179.359L178.867 36.1124H170.927V35.6811Z" fill="#5F5A65"/>
<path d="M100.111 52.6057C100.111 54.1519 100.047 54.0693 101.524 54.2505V54.6819H97.1034V54.2505C98.5836 54.0693 98.5164 54.1519 98.5164 52.6057V45.1352C98.5164 43.5922 98.5836 43.6738 97.1034 43.4904V43.0602H101.524V43.4904C100.047 43.6738 100.111 43.5922 100.111 45.1352V52.6057Z" fill="#5F5A65"/>
<path d="M106.061 43.4904C105.157 43.4904 104.499 43.7575 105.043 45.3514C105.684 47.311 106.639 50.1661 107.49 52.6905C108.545 50.1491 109.548 47.5908 110.565 45.0526C110.977 44.0066 110.549 43.4904 109.431 43.4904V43.0602H112.69V43.4904C112.211 43.4904 111.963 43.6579 111.619 44.4888C110.237 47.8918 108.839 51.2767 107.458 54.6819H106.62C105.617 51.8109 104.499 48.605 103.498 45.7838C102.89 44.0066 102.672 43.4904 101.886 43.4904V43.0602H106.061V43.4904Z" fill="#5F5A65"/>
<path d="M112.849 54.2505C114.327 54.0693 114.116 54.1519 114.116 52.6057V45.1352C114.116 43.5922 114.327 43.6738 112.849 43.4904V43.0602H120.05V45.733H119.621C119.457 44.5047 119.128 43.5922 117.946 43.5922H115.711V48.339H117.091C118.128 48.339 118.572 47.9257 118.603 46.8956H119.031V50.431H118.603C118.572 49.4518 118.193 48.8699 117.091 48.8699H115.711V52.6227C115.711 54.0343 116.35 54.152 117.83 54.152C120.213 54.152 120.099 53.4695 120.854 51.6922H121.281L120.789 54.6819H112.849V54.2505Z" fill="#5F5A65"/>
<path d="M121.624 43.0602H126.41C128.069 43.0602 129.73 43.9409 129.73 45.8835C129.73 47.5908 128.694 48.7714 127.428 49.2695L129.038 51.742C129.862 52.9544 130.781 54.118 131.356 54.4678V54.6819H129.663C128.694 54.6819 128.167 52.8728 126.179 49.5355H124.634V52.6057C124.634 54.1519 124.568 54.0693 126.046 54.2505V54.6819H121.624V54.2505C123.104 54.0693 123.041 54.1519 123.041 52.6057V45.1352C123.041 43.5922 123.104 43.6738 121.624 43.4904V43.0602ZM124.634 49.0024H125.997C127.428 49.0024 128.086 47.9098 128.086 46.0329C128.086 44.2217 127.101 43.5922 125.9 43.5922H124.634V49.0024Z" fill="#5F5A65"/>
<path d="M137.009 45.536C136.878 44.3712 136.252 43.4418 134.939 43.4418C133.985 43.4418 133.131 43.941 133.131 45.1703C133.131 46.3319 134.281 47.0292 135.925 48.2734C137.667 49.5844 138.226 50.4311 138.226 51.811C138.226 53.7854 136.221 54.8791 134.248 54.8791C133.196 54.8791 132.291 54.682 131.437 54.3492C131.372 54.3174 131.321 54.2506 131.321 54.1181V51.7273H131.75C131.932 53.5703 133.131 54.3015 134.397 54.3015C135.563 54.3015 136.515 53.4039 136.515 52.1915C136.515 51.1126 135.942 50.234 133.476 48.5892C132.59 47.9904 131.488 47.345 131.488 45.536C131.488 44.0427 133.131 42.8632 135.021 42.8632C135.726 42.8632 136.665 42.9437 137.322 43.1779C137.422 43.2097 137.439 43.2765 137.439 43.3591V45.536H137.009Z" fill="#5F5A65"/>
<path d="M141.856 52.6057C141.856 54.1519 141.791 54.0693 143.268 54.2505V54.6819H138.848V54.2505C140.328 54.0693 140.263 54.1519 140.263 52.6057V45.1352C140.263 43.5922 140.328 43.6738 138.848 43.4904V43.0602H143.268V43.4904C141.791 43.6738 141.856 43.5922 141.856 45.1352V52.6057Z" fill="#5F5A65"/>
<path d="M149.171 52.6057C149.171 54.1519 149.105 54.0693 150.584 54.2505V54.6819H146.161V54.2505C147.643 54.0693 147.576 54.1519 147.576 52.6057V43.5922H146.245C144.815 43.5922 144.485 44.5047 143.942 45.6016H143.531L143.975 43.0602H152.771L153.214 45.6016H152.806C152.261 44.5047 151.932 43.5922 150.502 43.5922H149.171V52.6057Z" fill="#5F5A65"/>
<path d="M155.876 54.2505C157.354 54.0693 157.289 54.1519 157.289 52.6057V50.0516L154.758 44.9858C154.215 43.9069 154.05 43.4904 153.292 43.4904V43.0602H157.191V43.4904C155.942 43.4904 156.056 44.1231 156.467 44.9858L158.457 49.155L160.726 44.9858C161.284 43.9727 160.758 43.4904 159.788 43.4904V43.0602H163.174V43.4904C162.712 43.4904 162.268 43.7088 161.825 44.5047L159.08 49.5355C158.917 49.8672 158.885 50.3325 158.885 50.7469V52.6057C158.885 54.1519 158.818 54.0693 160.298 54.2505V54.6819H155.876V54.2505Z" fill="#5F5A65"/>
<path d="M92.4233 43.0603V43.4906C93.5067 43.5753 94.0652 43.8064 94.1481 44.4062C94.1807 44.6691 94.2489 44.9541 94.2489 45.3028V52.1247H94.2153C91.7641 49.1202 89.2162 46.0669 86.767 43.0603L79.3922 43.0594V43.4908C80.4305 43.6052 81.1832 44.0641 81.2944 44.8675C81.3375 45.2257 81.4288 45.6061 81.4288 46.0746V52.2818C81.4288 55.8554 79.8342 57.9092 76.8045 57.9092C73.5102 57.9092 72.5234 55.5184 72.5234 52.3952V45.852C72.5234 43.7738 72.5811 43.7388 74.5726 43.4908V43.0594H68.6234V43.4908C70.6128 43.7388 70.5246 43.7738 70.5246 45.852V52.5043C70.5246 56.5474 71.9838 58.9584 76.6942 58.9584C79.5476 58.9584 82.5763 57.1706 82.5763 52.3697V46.0746C82.5763 46.0375 82.5762 46.0004 82.5783 45.9622C82.8261 42.8252 84.8837 43.442 85.6815 44.6216V52.4407C85.6815 52.7894 85.6154 53.0724 85.585 53.3373C85.501 53.935 84.9614 54.1671 84.1719 54.2509V54.6822H88.1969V54.2509C87.1145 54.1671 86.5539 53.935 86.471 53.3373C86.4385 53.0723 86.3734 52.7893 86.3734 52.4407V45.1027C89.0514 48.2895 91.7641 51.5611 94.3791 54.6822H94.9365V45.303C94.9365 44.9543 95.0048 44.6692 95.0363 44.4064C95.1182 43.8065 95.6756 43.5755 96.4493 43.4907V43.0605L92.4233 43.0603Z" fill="#5F5A65"/>
</svg>