<svg xmlns="http://www.w3.org/2000/svg" width="162" height="40" fill="none"><g fill="#fff" opacity=".5"><path d="M15.236 10.717c-.093-.129-.2-.197-.318-.197a.45.45 0 0 0-.243.085c-.896.736-2.121 3.854-3.126 7.964l.889.01c1.757.021 3.57.043 5.364.072a87.13 87.13 0 0 0-1.33-4.798c-.598-1.904-1.002-2.756-1.236-3.136z"/><path d="M17.229 2.793C7.937 2.793.404 10.673.404 20.394S7.937 37.996 17.23 37.996c9.291 0 16.824-7.88 16.824-17.602 0-9.72-7.533-17.601-16.824-17.601zm12.098 17.92-.005.004a.827.827 0 0 1-.056.044l-.019.014a1.109 1.109 0 0 1-.075.046l-.002.002a.858.858 0 0 1-.415.107h-7.969c.063.276.133.59.209.931.436 1.973 1.597 7.215 2.83 7.215h.024l.013-.002h.024c.963 0 1.454-1.456 2.531-4.647l.013-.039c.173-.512.368-1.09.58-1.702l.054-.156a.386.386 0 0 1 .361-.262c.213 0 .386.181.386.404a.44.44 0 0 1-.016.116l-.045.157c-.112.38-.232.897-.37 1.496-.641 2.783-1.61 6.987-4.099 6.987h-.018c-1.607-.013-2.57-2.702-2.98-3.85-.769-2.146-1.35-4.434-1.91-6.65h-7.337l-1.523 5.1-.022-.018a.768.768 0 0 1-.654.376c-.425 0-.773-.362-.775-.807l.002-.027.092-.577c.21-1.31.462-2.67.75-4.046H5.808l-.011-.011c-.562-.085-.994-.604-.994-1.21 0-.592.401-1.098.954-1.2a2.76 2.76 0 0 1 .362-.017c.045 0 .095 0 .15.002.983.018 2.024.034 3.167.05 1.617-6.874 3.49-10.364 5.568-10.373 2.229 0 3.883 5.31 5.206 10.504l.006.021c2.72.057 5.618.14 8.436.351l.118.012c.046 0 .09.005.134.012l.016.002.014.003.007.002a.92.92 0 0 1 .715.914.95.95 0 0 1-.33.723zm14.063 4.086-1.333 3.448h-3.875l7.373-18.005h3.422l7.347 18.006h-3.85L51.14 24.8h-7.75v-.001zm3.85-10.003-2.516 6.555h5.083l-2.567-6.555zm30.924 6.529v6.923h-3.498V21.64c0-2-.93-3.08-2.566-3.08-.73 0-1.535.343-2.265 1.396.05.447.1.895.1 1.369v6.923H66.44V21.64c0-2-.931-3.08-2.592-3.08-.68 0-1.435.422-2.139 1.422v8.266h-3.497v-12.61h3.497v.764c.755-.738 1.56-1.159 2.97-1.159 1.534 0 2.892.632 3.85 1.79 1.282-1.237 2.49-1.79 4.377-1.79 2.944 0 5.259 2.396 5.259 6.082zm15.372.63c0 3.659-2.667 6.554-5.988 6.554-1.359 0-2.491-.368-3.422-1v6.818H80.63v-18.69h3.497v.737c.931-.632 2.064-1 3.422-1 3.32 0 5.988 2.87 5.988 6.581zm-3.447 0c0-1.869-1.308-3.501-3.12-3.501-1.032 0-2.064.368-2.843 1.474v4.028c.78 1.079 1.811 1.447 2.843 1.447 1.811.001 3.12-1.605 3.12-3.448zm8.908 6.292H95.5V9.557h3.497v18.69zm3.146-17.057c0-1.237.931-2.159 2.113-2.159 1.158 0 2.089.921 2.089 2.16 0 1.21-.931 2.105-2.089 2.105-1.182 0-2.113-.895-2.113-2.106zm3.875 4.449v12.609h-3.498v-12.61h3.498zm12.706 12.424c-1.46.474-2.114.579-3.246.579-2.919 0-4.831-2.159-4.831-5.422v-4.502h-2.542v-3.08h2.542v-4.501h3.472v4.501h4.353v3.08h-4.353v4.475c0 1.422.83 2.08 2.113 2.08.654 0 1.359-.158 2.038-.342l.454 3.132zm14.038.183h-3.498v-.894c-.981.815-2.088 1.29-3.447 1.29-3.17 0-5.284-2.396-5.284-6.055v-6.95h3.497v6.608c0 2 .957 3.08 2.592 3.08.881 0 1.837-.553 2.642-1.58v-8.107h3.498v12.608zm14.847.001h-3.498v-.737c-.931.632-2.063 1-3.422 1-3.321 0-6.013-2.87-6.013-6.581 0-3.659 2.692-6.555 6.013-6.555 1.359 0 2.491.368 3.422 1V9.558h3.498v18.689zm-3.498-4.29v-4.028c-.78-1.08-1.812-1.448-2.843-1.448-1.837 0-3.121 1.606-3.121 3.448 0 1.87 1.283 3.502 3.121 3.502 1.031 0 2.063-.369 2.843-1.474zm17.687-1.079h-8.882c.277 1.473 1.208 2.632 3.12 2.632.981 0 1.661-.316 2.038-.948h3.649c-.654 2.422-2.919 4.08-5.762 4.08-3.875 0-6.492-2.921-6.492-6.686 0-3.896 2.592-6.713 6.391-6.713 3.447 0 6.013 2.553 6.013 6.45 0 .526-.025.816-.075 1.184zm-8.857-2.16h5.46c-.201-1.578-1.107-2.447-2.516-2.447-1.686 0-2.617 1.026-2.944 2.448z"/></g></svg>