<svg xmlns="http://www.w3.org/2000/svg" width="110" height="40" fill="none"><g fill="#fff" clip-path="url(#a)" opacity=".5"><path d="M0 .002v30.986L3.865 31V16.244h9.318v-3.9H3.865V3.9H16V0L0 .002zM23.5 6a2.5 2.5 0 1 0 0-5 2.5 2.5 0 0 0 0 5zM22 10v21h4V10h-4z"/><path fill-rule="evenodd" d="M40.06 10C34.724 10 31 14.46 31 19.755c0 5.296 3.724 9.756 9.06 9.756 2.443 0 4.456-.935 5.922-2.456v2.758c0 3.433-2.729 6.302-6.29 6.302-1.28 0-2.552-.49-3.565-1.18l-2.013 3.446A10.35 10.35 0 0 0 39.692 40C45.385 40 50 35.44 50 29.813V10.604h-4.018v1.852C44.516 10.935 42.503 10 40.06 10zm-5.042 9.755c0-3.287 2.544-5.87 5.479-5.87 2.934 0 5.478 2.583 5.478 5.87s-2.544 5.87-5.478 5.87c-2.934 0-5.479-2.583-5.479-5.87z" clip-rule="evenodd"/><path d="M64.246 13.826c-2.355 0-4.264 1.96-4.264 4.272V31H56V10.595h3.982v1.87C61.15 10.982 62.868 10 65.112 10c2.79 0 4.93 1.361 6.171 3.444C72.663 11.432 74.913 10 77.62 10c4.532 0 7.353 3.591 7.38 8.034V31h-3.982V18.098c0-2.312-1.909-4.272-4.264-4.272-2.354 0-4.263 1.96-4.263 4.272V31h-3.982V18.098c0-2.312-1.909-4.272-4.263-4.272z"/><path fill-rule="evenodd" d="M106.041 12.963A9.538 9.538 0 0 0 99.07 10C93.18 10 89 15.018 89 21s4.18 11 10.07 11a9.537 9.537 0 0 0 6.971-2.963v2.357H110V10.606h-3.959v2.357zM92.959 21c0-3.968 3.02-7.102 6.541-7.102 3.522 0 6.541 3.134 6.541 7.102 0 3.968-3.019 7.102-6.541 7.102-3.522 0-6.541-3.134-6.541-7.102z" clip-rule="evenodd"/></g><defs><clipPath id="a"><path fill="#fff" d="M0 0h110v40H0z"/></clipPath></defs></svg>