<svg xmlns="http://www.w3.org/2000/svg" xml:space="preserve" style="enable-background:new 0 0 48 48" viewBox="0 0 48 48"><linearGradient id="a" x1="13.88" x2="2.245" y1="33.63" y2="42.376" gradientUnits="userSpaceOnUse"><stop offset="0" style="stop-color:#0e65e0"/><stop offset="1" style="stop-color:#02f8a8"/></linearGradient><path d="M24 42.9C15.2 48 6.6 49 2.5 44.7c-4-4.2-2.8-12.2 2.3-20.4.3-.4.6-.9.8-1.3.1.2.2.4.3.5.1.1.2.3.3.5.2.4.4.7.6 1.1.1.2.2.3.3.5.1.1.2.3.3.4.1.1.1.2.2.3.1.2.2.3.3.5.1 0 .2.2.3.3.2.2.3.5.5.7.1.1.2.3.3.4 0 0 0 .1.1.1.1.1.2.3.3.4.1.1.2.3.3.4.1.1.1.2.2.2.1.1.2.2.2.3l.3.3.3.3c.3.3.5.6.8 1 .1.1.1.2.2.3.1.1.1.2.2.3.2.2.3.4.5.5l-1.7 3.1c-.4.9-.5 1.8-.2 2.6 0 .1.1.2.1.3.1.2.3.4.4.6l.1.1.1.1.2.2c.1.1.2.2.4.2.1 0 .2.1.2.1.5.2 1 .3 1.5.2h.2c.2 0 .4-.1.6-.2.1 0 .1-.1.2-.1.2-.1.3-.2.4-.3l.9-.6 1.6-1.1c2.2 2.2 4.4 3.9 6.6 5.4z" style="fill:url(#a)"/><linearGradient id="b" x1="28.189" x2="41.62" y1="29.224" y2="43.904" gradientUnits="userSpaceOnUse"><stop offset="0" style="stop-color:#ff1fce"/><stop offset="1" style="stop-color:#ffc02f"/></linearGradient><path d="M44.3 45.9c-4.1 3.8-12.1 2.3-20.2-3-2.2-1.5-4.5-3.2-6.7-5.2l3.4-2.4c.2-.1.4-.3.7-.4.2-.1.4-.2.6-.4.1 0 .1-.1.2-.1.1-.1.3-.1.5-.2s.5-.2.8-.2c.2-.1.5-.1.7-.2h.6c.1 0 .2 0 .3-.1h.1c.8-.1 1.6-.1 2.4 0h.2c.1 0 .2.1.3.1h.2c.3.1.8.3 1.4.6l.4.2.9.5h.1l.2.1h.1l.6.3.9.5 1.6.9 1.7.9c.1 0 .2.1.3.1.1 0 .2.1.3.1h.3c.8.2 1.6 0 2.3-.4.1-.1.2-.1.2-.2l.1-.1.2-.2.1-.1c.5-.6.8-1.3.7-2v-.2c0-.2-.1-.4-.1-.5 0-.1-.1-.2-.1-.3-.1-.2-.2-.4-.3-.7l-2-2.3c.1-.1.1-.2.2-.3 0 0 0-.1.1-.1.2-.2.4-.5.6-.7.1-.1.2-.2.3-.4.2-.2.4-.5.6-.7l.3-.3c.3-.4.6-.7.8-1.1.1-.1.2-.2.3-.4.1-.1.2-.2.3-.4.1-.2.2-.3.3-.4.3-.5.6-.9.9-1.4.2.4.5.8.7 1.3v.1c4 8.3 4.6 16 .6 19.7z" style="fill:url(#b)"/><defs><filter id="c" width="5.2" height="6.1" x="38.3" y="24.9" filterUnits="userSpaceOnUse"><feColorMatrix values="1 0 0 0 0 0 1 0 0 0 0 0 1 0 0 0 0 0 1 0"/></filter></defs><mask id="e" width="5.2" height="6.1" x="38.3" y="24.9" maskUnits="userSpaceOnUse"><g style="filter:url(#c)"><linearGradient id="d" x1="38.938" x2="43.926" y1="29.253" y2="25.148" gradientUnits="userSpaceOnUse"><stop offset="0" style="stop-color:#000"/><stop offset="1" style="stop-color:#fff"/></linearGradient><path d="M43.5 26.1c-.4.5-.9 1-1.4 1.4-1.2 1.2-2.4 2.3-3.8 3.4l.3-.3c1.6-1.9 3-3.8 4.2-5.7.2.4.4.8.7 1.2z" style="fill:url(#d)"/></g></mask><path d="M43.5 26.1c-.4.5-.9 1-1.4 1.4-1.2 1.2-2.4 2.3-3.8 3.4l.3-.3c1.6-1.9 3-3.8 4.2-5.7.2.4.4.8.7 1.2z" style="mask:url(#e);fill:url(#SVGID_00000071527020554520954690000018046798890172204710_)"/><linearGradient id="f" x1="31.401" x2="43.114" y1="18.217" y2="3.849" gradientUnits="userSpaceOnUse"><stop offset="0" style="stop-color:#0b4cea"/><stop offset="1" style="stop-color:#02edfc"/></linearGradient><path d="M42.8 24.9c-.3.4-.6.9-.9 1.3-.1.1-.2.3-.3.4-.1.1-.2.2-.3.4-.1.1-.2.2-.3.4-.3.4-.5.7-.8 1.1l-.3.3c-.2.2-.4.5-.6.7-.1.1-.2.2-.3.4-.2.3-.4.5-.7.8-.1.1-.1.2-.2.3L36 27.7c-2-2.8-2.1-6.4-.5-9.3l1.4-2.3 2.2-3.7c.7-1.2.5-2.7-.6-3.7s-2.4-1-3.7-.2l-3.1 2.2c-2.3-2.1-4.5-4-6.9-5.5C33.4.5 41.6-.4 45.5 3.8c4 4.3 2.7 12.6-2.7 21.1z" style="fill:url(#f)"/><defs><filter id="g" width="6.5" height="8.4" x="4.8" y="22.9" filterUnits="userSpaceOnUse"><feColorMatrix values="1 0 0 0 0 0 1 0 0 0 0 0 1 0 0 0 0 0 1 0"/></filter></defs><mask id="i" width="6.5" height="8.4" x="4.8" y="22.9" maskUnits="userSpaceOnUse"><g style="filter:url(#g)"><linearGradient id="h" x1="4.818" x2="11.366" y1="27.143" y2="27.143" gradientUnits="userSpaceOnUse"><stop offset="0" style="stop-color:#000"/><stop offset="1" style="stop-color:#fff"/></linearGradient><path d="M11.4 31.4c-1.6-1.5-3.1-3-4.4-4.5-.8-.9-1.5-1.8-2.1-2.6.3-.4.6-.9.8-1.3 1.5 2.7 3.4 5.6 5.7 8.4z" style="fill:url(#h)"/></g></mask><path d="M11.4 31.4c-1.6-1.5-3.1-3-4.4-4.5-.8-.9-1.5-1.8-2.1-2.6.3-.4.6-.9.8-1.3 1.5 2.7 3.4 5.6 5.7 8.4z" style="mask:url(#i);fill:url(#SVGID_00000119825473467986996640000005196597189771528112_)"/><path d="M36.6 38.2c-.1 0-.2-.1-.3-.1l-1.7-.9 1.7.9c.1 0 .2 0 .3.1z" style="fill:#12f3e1"/><path d="M11.4 39.4c-.1-.1-.2-.1-.2-.2l-.1-.1.1.1c0 .1.1.2.2.2zm10.8-4.9c.1-.1.3-.1.5-.2-.2 0-.3.1-.5.2zm2-.7c-.3.1-.5.1-.7.2.2 0 .4-.1.7-.2zm7.2 1.5c-.1 0-.1 0 0 0l-1-.6 1 .6c-.1-.1-.1 0 0 0zm.8.5-.6-.3.6.3z" style="fill:#5676ed"/><path d="M22.2 34.5c.1-.1.3-.1.5-.2-.2 0-.3.1-.5.2zm2-.7c-.3.1-.5.1-.7.2.2 0 .4-.1.7-.2zm7.2 1.5c-.1 0-.1 0 0 0l-1-.6 1 .6c-.1-.1-.1 0 0 0zm.8.5-.6-.3.6.3z" style="fill:#fff"/><linearGradient id="j" x1="21.326" x2="6.646" y1="20.818" y2="2.078" gradientUnits="userSpaceOnUse"><stop offset=".003" style="stop-color:#ff37df"/><stop offset="1" style="stop-color:#6e00ff"/></linearGradient><path d="m31.6 10.7-2.9 2.1c-.2.2-.5.4-.8.5 0 0-.1.1-.2.1-2.5 1.6-5.4 1-6.9.4 0 0-.1 0-.2-.1-.3-.1-.8-.4-1.4-.6-.2-.1-.4-.2-.5-.3-.1-.1-.2-.1-.3-.2-.1 0-.1-.1-.1-.1L16 11.3l-2.8-1.6c-1.4-.6-2.8-.4-3.7.6-1 1.1-1 2.6-.2 3.7l1.6 2.1 2.7 3.6c1.9 2.7 2.2 6.3.5 9.3l-1.8 3.3c-.2-.2-.3-.4-.5-.5-.1-.1-.2-.2-.2-.3-.1-.1-.1-.2-.2-.3-.3-.3-.5-.6-.8-1l-.3-.3-.3-.3c-.1-.1-.2-.2-.2-.3-.1-.1-.1-.2-.2-.2-.1-.1-.2-.3-.3-.4-.1-.1-.2-.3-.3-.4 0 0 0-.1-.1-.1-.1-.1-.2-.3-.3-.4-.2-.2-.3-.5-.5-.7 0-.1-.1-.3-.2-.4-.1-.2-.2-.3-.3-.5-.1-.1-.1-.2-.2-.3-.1-.1-.2-.3-.3-.4 0-.2-.1-.3-.2-.5-.2-.4-.4-.7-.6-1.1-.2-.1-.3-.3-.3-.4-.1-.2-.2-.4-.3-.5C.9 14.2.1 6 4.3 2.1 8.5-1.7 16.5-.2 24.7 5.2c2.3 1.5 4.7 3.4 6.9 5.5z" style="fill:url(#j)"/></svg>