<svg xmlns="http://www.w3.org/2000/svg" width="147" height="40" fill="none"><g clip-path="url(#a)" opacity=".5"><path fill="#FFFDF9" d="m34.48 28.127-.021-.066 13.326-12.188V10h-21.38v5.873h12.77l.022.056L26 28.127V34h22v-5.873H34.48zM60.692 9c-2.461 0-4.466.37-6.017 1.112a7.895 7.895 0 0 0-3.49 3.057 11.123 11.123 0 0 0-1.465 4.422l6.473.909c.234-1.378.702-2.355 1.404-2.93a4.291 4.291 0 0 1 2.782-.86c1.314 0 2.267.35 2.86 1.052.586.702.884 1.674.884 2.955v.639H57.9c-3.168 0-5.444.702-6.828 2.105-1.384 1.404-2.074 3.257-2.072 5.56 0 2.357.69 4.112 2.072 5.263 1.381 1.151 3.119 1.723 5.212 1.716 2.597 0 4.594-.892 5.992-2.677a9.949 9.949 0 0 0 1.731-3.689h.236l.892 5.86H71v-14.84c0-3.067-.81-5.443-2.427-7.127C66.955 9.842 64.328 9 60.692 9zm2.05 18.294c-.93.775-2.148 1.161-3.666 1.161-1.25 0-2.119-.218-2.606-.656a2.145 2.145 0 0 1-.734-1.667 2.186 2.186 0 0 1 .608-1.617 2.255 2.255 0 0 1 1.668-.608h6.122v.404a3.72 3.72 0 0 1-1.391 2.983zM106 10h-7v24h7V10zm39.89 0c-1.868 0-3.341.692-4.418 2.075-.774.994-1.361 2.462-1.764 4.406h-.194L138.649 10H133v24h6.615V21.692c0-1.552.346-2.741 1.039-3.569.693-.828 1.971-1.241 3.835-1.241H147V10h-1.11zm-19.664.423c-1.592-.95-3.6-1.425-6.025-1.423-3.817 0-6.804 1.091-8.961 3.274s-3.236 5.191-3.236 9.026a14.438 14.438 0 0 0 1.469 6.697 10.612 10.612 0 0 0 4.184 4.427c1.806 1.048 3.956 1.574 6.447 1.576 2.155 0 3.955-.333 5.4-1a8.679 8.679 0 0 0 3.436-2.725 11.9 11.9 0 0 0 1.867-3.875l-5.877-1.652a5.457 5.457 0 0 1-1.383 2.402c-.664.667-1.776 1-3.336 1-1.855 0-3.238-.533-4.149-1.6-.66-.771-1.074-1.872-1.258-3.298h16.093c.066-.667.1-1.226.1-1.677v-1.476a13.199 13.199 0 0 0-1.192-5.749 8.984 8.984 0 0 0-3.579-3.927zm-6.222 4.226c2.765 0 4.334 1.366 4.705 4.1h-9.784a5.661 5.661 0 0 1 1.096-2.503c.897-1.067 2.224-1.6 3.983-1.597zM102.026.002a3.965 3.965 0 0 0-2.889 1.11 3.83 3.83 0 0 0-1.134 2.865 3.884 3.884 0 0 0 4.023 4.02 3.822 3.822 0 0 0 2.864-1.135 3.943 3.943 0 0 0 1.106-2.885A3.8 3.8 0 0 0 102.03.006l-.004-.004zM87.55 9c-2.278 0-4.11.729-5.493 2.187-1.024 1.08-1.776 2.692-2.255 4.836h-.214l-.874-6.367H73V40h6.69V27.502h.244c.204.833.49 1.643.855 2.418a6.823 6.823 0 0 0 2.662 3.033 7.703 7.703 0 0 0 3.953.97c2.801 0 4.934-1.11 6.399-3.333C95.267 28.368 96 25.267 96 21.287c0-3.843-.709-6.852-2.126-9.026C92.457 10.087 90.349 9 87.55 9zm.678 17.085c-.78 1.152-2 1.728-3.662 1.728a4.249 4.249 0 0 1-1.992-.393 4.329 4.329 0 0 1-1.595-1.276c-.866-1.107-1.298-2.624-1.296-4.55v-.448c0-1.956.432-3.452 1.296-4.491.863-1.039 2.059-1.552 3.587-1.54 1.691 0 2.92.546 3.686 1.64.766 1.094 1.15 2.62 1.15 4.577.004 2.024-.385 3.609-1.167 4.753h-.007z"/><path fill="#FF4F00" d="M24 27H0v6h24v-6z"/></g><defs><clipPath id="a"><path fill="#fff" d="M0 0h147v40H0z"/></clipPath></defs></svg>