<svg xmlns="http://www.w3.org/2000/svg" width="164" height="40" fill="none"><g opacity=".5"><path fill="#444CE7" d="M25.332 1.667H11.298L0 12.977v14.047l11.298 11.31h14.034l11.297-11.31V12.976L25.332 1.667zM13.24 27.201l-7.238-7.245 7.238-7.245c2.736-2.739 7.237-2.739 9.973 0l7.238 7.245-7.238 7.245c-2.736 2.74-7.149 2.74-9.973 0z"/><path fill="#fff" d="M52.73 28.534c2.248 0 4.096-1.15 4.67-2.875v2.675h3.322v-6.75c0-1.525-1.199-2.825-2.822-2.825h-4.745v2.825h3.371c.425 0 .7.275.7.7 0 1.625-2.148 3.2-4.321 3.2-2.897 0-5.195-2.275-5.195-5.9 0-3.625 2.298-5.725 5.27-5.725 2.247 0 3.796 1.225 4.07 3.1h3.722c-.225-3.75-3.372-6.325-7.767-6.325-4.62 0-8.866 2.975-8.866 8.95s4.12 8.95 8.59 8.95zm9.418-.2h3.471V10.259h-3.471v18.075zm10.96.2c3.87 0 6.643-2.75 6.643-6.5s-2.773-6.5-6.644-6.5c-3.87 0-6.643 2.75-6.643 6.5s2.772 6.5 6.644 6.5zm0-3c-1.874 0-3.147-1.425-3.147-3.5 0-2.1 1.273-3.525 3.147-3.525 1.873 0 3.146 1.425 3.146 3.525 0 2.075-1.273 3.5-3.147 3.5zm14.411 3c3.72 0 5.944-2.575 5.944-6.5s-2.223-6.5-5.894-6.5c-1.574 0-2.798.6-3.497 1.525v-6.8h-3.471v18.075h3.471v-1.375c.7.975 1.998 1.575 3.447 1.575zm-.55-3c-1.873 0-3.097-1.4-3.097-3.5 0-2.125 1.224-3.525 3.097-3.525 1.823 0 3.072 1.4 3.072 3.525 0 2.1-1.249 3.5-3.072 3.5zm12.305-10c-3.447 0-5.495 2.025-5.645 4.55h3.097c.05-1.05.824-2 2.348-2 1.423 0 2.248.725 2.248 1.775 0 .525-.325.925-.949.925H98.25c-2.748 0-4.596 1.5-4.596 3.975 0 2.15 1.674 3.775 4.121 3.775 1.723 0 3.122-.775 3.547-1.95v1.75h3.446v-8.1c0-2.85-2.323-4.7-5.494-4.7zm-.625 10.475c-.974 0-1.673-.575-1.673-1.4 0-.975.75-1.625 1.798-1.625h2.548v.175c0 1.6-.974 2.85-2.673 2.85zm7.453 2.325h3.472V10.259h-3.472v18.075zm5.316 0h7.142c3.697 0 6.244-1.9 6.244-5.225 0-2.3-1.349-3.7-2.947-4.325 1.024-.55 2.048-1.8 2.048-3.45 0-2.925-2.373-4.5-5.544-4.5h-6.943v17.5zm3.696-10.825v-3.7h2.897c1.673 0 2.422.675 2.422 1.85s-.749 1.85-2.347 1.85h-2.972zm0 7.575v-4.4h3.122c2.073 0 2.997.8 2.997 2.225s-.924 2.175-2.997 2.175h-3.122zm15.729-9.55c-3.446 0-5.494 2.025-5.644 4.55h3.097c.05-1.05.824-2 2.347-2 1.424 0 2.248.725 2.248 1.775 0 .525-.325.925-.949.925h-2.123c-2.747 0-4.595 1.5-4.595 3.975 0 2.15 1.673 3.775 4.121 3.775 1.723 0 3.121-.775 3.546-1.95v1.75h3.447v-8.1c0-2.85-2.323-4.7-5.495-4.7zm-.624 10.475c-.974 0-1.674-.575-1.674-1.4 0-.975.75-1.625 1.799-1.625h2.547v.175c0 1.6-.974 2.85-2.672 2.85zm7.253 2.325h3.496v-6.9c0-1.625 1.074-2.8 2.598-2.8 1.448 0 2.422 1.1 2.422 2.625v7.075h3.497v-7.85c0-2.9-1.849-4.95-4.696-4.95-1.723 0-3.122.725-3.821 1.95v-1.75h-3.496v12.6zm21.978 0h4.195l-5.419-7.65 5.02-4.95h-4.396l-4.37 4.3v-9.775h-3.497v18.075h3.497v-3.95l1.398-1.375 3.572 5.325z"/></g></svg>